<?xml version="1.0" encoding="utf-8"?>
<!DOCTYPE svg PUBLIC "-//W3C//DTD SVG 1.0//EN" "http://www.w3.org/TR/2001/REC-SVG-20010904/DTD/svg10.dtd">
<svg version="1.0" xmlns="http://www.w3.org/2000/svg" width="500px" height="500px" viewBox="0 0 500 500" preserveAspectRatio="xMidYMid meet">
 <g fill="#ffffff">
  <path d="M0 250 l0 -250 250 0 250 0 0 250 0 250 -250 0 -250 0 0 -250z m181.3 131.5 c23.4 -4.1 51.5 -17.3 67.2 -31.7 l5.5 -5 -10.8 -10.1 c-5.9 -5.6 -13.9 -13.3 -17.9 -17 l-7.2 -6.9 -7.1 5.5 c-16.3 12.8 -26.1 16.1 -48 16.2 -15.4 0 -21.1 -0.9 -31.4 -5.2 -18.6 -7.7 -34.3 -26.2 -38.7 -45.5 -4 -17.9 -1.7 -47.1 4.7 -58.9 5.6 -10.2 15.7 -19.4 29.6 -26.9 11.2 -6 17.7 -7.4 35.8 -7.4 20.1 -0.1 27.8 2.1 43.2 12.5 3.1 2.2 5.9 3.9 6.1 3.9 0.8 0 33.2 -33.1 33.2 -34 0 -1.3 -12.2 -10.2 -21 -15.3 -16 -9.3 -36.2 -15.1 -56.6 -16.4 -22.8 -1.4 -52.9 7.4 -74 21.7 -16.2 11.1 -29.6 27.5 -40.5 49.5 -7.5 15.3 -10.4 27.2 -11.1 45 -1 25.5 4.1 43.7 19 68 4.7 7.8 9 12.9 19.1 23.1 15 15 21.5 20.1 30.8 24.3 8.5 3.9 28 9.8 36 11 10 1.4 24.8 1.2 34.1 -0.4z m215 -7.5 c26.9 -5.2 52.8 -19.1 72.2 -38.9 10 -10.1 9.5 -7.7 9.5 -45.7 0 -29.6 -0.2 -33.3 -1.7 -34.5 -1.3 -1.1 -9.6 -1.5 -41.5 -1.7 -22 -0.2 -41.5 -0.1 -43.4 0.2 -2.9 0.6 -3.5 1.2 -4.5 4.9 -1.1 4 -0.5 19.4 0.7 20.7 0.3 0.3 9.9 0.5 21.2 0.5 l20.7 0 0.7 9.5 c1.1 14.4 0.6 16.2 -5.5 21.1 -6.3 5 -10.9 7.4 -19.1 10 -10.8 3.5 -19.5 4.9 -30.6 4.9 -23.9 0 -38.7 -5.6 -53 -20 -10 -10 -15.7 -20.3 -18.6 -33.5 -2.4 -10.7 -2.3 -29.5 0.1 -39 3.8 -15.1 13.5 -29.1 27.4 -39.4 13.5 -10 24.1 -13.1 45 -13.1 15.7 0 22.1 1.2 32.9 6.1 5.8 2.6 6.6 2.7 8.5 1.4 2.7 -1.9 32.7 -31.7 32.7 -32.4 0 -0.8 -7 -5.8 -13.9 -9.9 -22.1 -13.5 -39.6 -17.9 -66.7 -16.9 -18.8 0.6 -30.3 3.4 -46.4 11.3 -15 7.3 -23.3 12.9 -33.8 22.9 -14.4 13.7 -26.6 32.9 -33.1 52 -13 38.4 -4.5 81.6 22.8 115.9 13.2 16.6 35.6 32.1 56.6 39.1 19.7 6.7 41.4 8.2 60.8 4.5z m-325.1 -7.5 c-15.4 -14.4 -29.7 -34.5 -36.2 -51.2 -21.3 -54.2 -10.2 -116.1 27.5 -153.8 13.7 -13.7 32.7 -26 49.3 -31.9 19.1 -6.8 48.3 -10.1 69.2 -7.7 21.5 2.5 43.7 10.2 59.6 20.7 3.6 2.4 6 3.4 7.2 2.9 1.5 -0.6 1.5 -0.9 -0.7 -2.3 -8.1 -5.7 -20.7 -12.7 -30.2 -16.7 -14.4 -6.1 -27.1 -9.2 -43.3 -10.7 -54.8 -4.9 -110.3 26.9 -138.6 79.5 -17.4 32.3 -21 67.9 -10.6 103.9 3.3 11.2 11.8 28.8 19.7 40.8 6.5 9.8 19.7 24.3 28.2 31.1 8.1 6.5 7.3 3.2 -1.1 -4.6z"/>
 </g>
 <g fill="#722f3b">
  <path d="M90 263 c0 -0.5 -0.7 -1 -1.5 -1 -1.1 0 -1.5 -1.1 -1.5 -4 0 -2.9 0.4 -4 1.5 -4 0.8 0 1.5 -0.7 1.5 -1.5 0 -0.8 -0.5 -1.5 -1.1 -1.5 -1.4 0 -0.7 -10.9 1.1 -18.2 1.2 -4.7 1.3 -4.8 5.2 -4.8 3.4 0 3.9 0.3 3.3 1.8 -1.8 4.5 -4.5 20.4 -4.5 27 0 6.5 -0.2 7.2 -2 7.2 -1.1 0 -2 -0.4 -2 -1z"/>
  <path d="M60 216.7 c0 -3.2 0 -3.2 -4.2 -2.9 l-4.1 0.4 0.6 -6.2 c0.6 -5.2 1.6 -7.8 6.4 -15.8 6.5 -10.7 18.2 -23.7 28.2 -31.3 14.9 -11.3 38.7 -20.8 60 -24 25.5 -3.7 59 3.1 82 16.6 7.5 4.4 8.1 4.9 8.1 8 0 2.7 -1.1 4.5 -5.8 9.4 -4.7 5 -6.3 6.1 -8.9 6.1 -1.8 0 -3.5 -0.5 -3.9 -1.1 -1.1 -1.8 -11 -7.8 -14 -8.5 -1.6 -0.3 -5.8 -1.6 -9.4 -2.9 -7.9 -2.8 -24.4 -5.5 -33.1 -5.5 -8.3 0 -22 1.8 -28.9 3.7 -6.7 1.9 -19 7.3 -19 8.3 0 0.4 -1.1 1.1 -2.5 1.4 -1.4 0.4 -2.5 1.1 -2.5 1.6 0 0.6 -0.6 1 -1.4 1 -3.7 0 -26.6 21.6 -26.6 25.1 0 1.1 -0.4 1.9 -1 1.9 -0.5 0 -1 1.1 -1 2.5 0 1.8 -0.5 2.5 -1.9 2.5 -1.1 0 -2.3 0.5 -2.6 1 -0.3 0.6 -2.1 1 -4 1 -1.9 0 -3.5 0.6 -3.8 1.4 -0.3 0.8 -1.8 1.6 -3.4 1.9 -2.7 0.4 -2.7 0.4 0.5 0.6 3 0.1 3.2 0.3 3.2 3.6 0 3.3 -0.2 3.5 -3.5 3.5 -3.3 0 -3.5 -0.2 -3.5 -3.3z"/>
 </g>
 <g fill="#69232f">
  <path d="M89 279.8 l-2.1 -9.3 -11.2 0.4 c-6.2 0.2 -16.5 -0.2 -22.9 -0.9 -11.3 -1.2 -11.8 -1.4 -11.8 -3.6 0 -1.3 -0.5 -2.6 -1.1 -3 -2 -1.2 -0.4 -23.5 2.5 -34.9 3 -11.6 10.7 -27.9 19.4 -41 6.6 -10 19.2 -22.7 29.1 -29.5 8.6 -5.8 27.1 -14.5 36.2 -16.9 8.9 -2.4 23.8 -5.1 28.5 -5.1 4.3 0 4.4 1.8 0.2 2.4 -12.3 1.7 -30 5.1 -34.5 6.7 -8.1 2.7 -24 11.3 -31.5 16.9 -8 6 -22.1 20.7 -26.9 28.1 -3.7 5.6 -6.3 12 -7.3 17.7 -0.5 3 -0.4 3.2 1.4 2.2 1 -0.5 2.7 -1 3.7 -1 1 0 2.7 -0.9 3.6 -2.1 1.3 -1.5 2.5 -1.9 4.3 -1.5 1.7 0.5 2.6 0.2 3.1 -1 0.3 -0.9 1.3 -1.4 2.4 -1.1 2.1 0.6 2.7 -1.8 0.7 -2.6 -0.8 -0.3 -0.3 -0.9 1.2 -1.5 1.4 -0.6 1.9 -1.1 1.1 -1.1 -1.1 -0.1 -1 -0.6 0.4 -2.1 2.9 -3.2 4.5 -2.5 4.5 2 0 3.3 -0.3 4 -2 4 -1.2 0 -2 0.7 -2 1.7 0 1.7 18.1 19.3 21.1 20.5 1.7 0.7 1.7 0.9 0.1 4.7 -0.9 2.2 -1.8 3.6 -2 3.1 -0.5 -1.3 -3.2 -1.3 -3.2 -0.1 0 0.5 0.6 1.2 1.3 1.4 0.7 0.3 0.5 0.6 -0.5 0.6 -2.1 0.1 -2.4 2.7 -0.5 3.4 0.7 0.3 0.5 0.6 -0.5 0.6 -1.9 0.1 -2.6 4.1 -0.8 4.1 0.6 0 1 0.5 1 1 0 0.6 -0.7 1 -1.5 1 -1.6 0 -2.1 3.6 -0.6 4.2 0.9 0.3 1.4 3.5 1.2 7.1 -0.1 0.9 -0.8 1.7 -1.6 1.7 -0.8 0 -1.5 0.5 -1.5 1.1 0 0.6 0.8 0.9 1.8 0.7 1.5 -0.4 1.8 0.3 2 5.6 0.3 6.3 2.6 18.4 4.2 22.4 0.9 2.1 0.7 2.2 -2.9 2.2 l-4 0 -2.1 -9.2z"/>
  <path d="M82.9 190.2 c1.1 -1.6 4.8 -5.3 8.3 -8.3 12.4 -10.8 14.8 -12 14.8 -7.4 0 2 -0.5 2.5 -2.5 2.5 -1.6 0 -2.5 0.6 -2.5 1.5 0 1 -1.1 1.5 -3.5 1.5 -3.3 0 -3.5 0.2 -3.5 3.4 0 1.9 -0.6 4.1 -1.3 4.8 -0.7 0.7 -1.6 2.1 -2 3.1 -0.5 1.3 -1.8 1.7 -5.2 1.7 l-4.6 0 2 -2.8z"/>
  <path d="M221 175 c0 -0.5 -1.8 -1 -4 -1 -2.2 0 -4 -0.4 -4 -1 0 -0.5 -0.7 -1 -1.5 -1 -0.8 0 -1.5 -0.4 -1.5 -1 0 -0.5 -1.8 -1.4 -3.9 -2 -2.2 -0.6 -4.1 -1.4 -4.3 -1.8 -0.3 -0.7 -10.7 -3.9 -16 -4.9 -3.3 -0.6 -3.8 -3.8 -0.8 -4.6 1.1 -0.3 2 -0.1 2 0.4 0 0.5 1.1 0.7 2.5 0.3 1.5 -0.4 2.5 -0.2 2.5 0.5 0 0.6 0.7 0.8 1.5 0.5 0.8 -0.4 1.5 -0.1 1.5 0.5 0 0.6 0.7 0.8 1.5 0.5 0.8 -0.4 1.5 -0.1 1.5 0.5 0 0.6 0.7 0.8 1.5 0.5 0.8 -0.4 1.5 -0.1 1.5 0.6 0 0.6 0.5 0.8 1 0.5 0.6 -0.3 1 -0.1 1 0.5 0 0.6 0.4 0.8 1 0.5 1.3 -0.8 10.4 3.7 15.1 7.5 l3.6 2.8 5 -5.3 c2.8 -2.9 5.3 -5.7 5.7 -6.3 0.3 -0.5 -2.2 -2.8 -5.7 -5 -10.8 -7 -24.5 -13 -35.7 -15.5 -7.7 -1.7 -9.8 -2.5 -8 -3 6.5 -1.7 31.2 6.5 45.5 15.1 7.1 4.3 8 5.2 8.3 8.1 0.3 3.1 -1.9 7.1 -4 7.1 -1.4 0 -4.8 3.9 -4.8 5.5 0 1.1 -1.1 1.5 -4 1.5 -2.2 0 -4 -0.4 -4 -1z"/>
  <path d="M109.3 171.3 c-1.8 -0.7 -1.6 -2.3 0.2 -2.3 0.8 0 1.5 -0.4 1.5 -0.9 0 -0.8 7.5 -4.5 14.3 -7 2.5 -1 2.7 -0.9 2.7 1.4 0 1.8 -0.5 2.5 -2 2.5 -1.9 0 -4.1 1.4 -8.2 5.3 -1.7 1.6 -5.8 2.1 -8.5 1z"/>
  <path d="M130 160.6 c0 -1.6 9.3 -4.2 11.1 -3.1 0.6 0.4 1.5 0.1 2 -0.6 0.6 -1 0.9 -0.4 0.9 1.9 l0 3.2 -7 0 c-5.3 0 -7 -0.3 -7 -1.4z"/>
  <path d="M146 158.5 c0 -0.8 0.7 -1.5 1.5 -1.5 0.8 0 1.5 -0.4 1.5 -1 0 -0.5 0.9 -1 2 -1 1.5 0 2 0.7 2 2.5 0 2.2 -0.4 2.5 -3.5 2.5 -2.4 0 -3.5 -0.5 -3.5 -1.5z"/>
  <path d="M167 158.1 c0 -1.4 0.9 -2 3.5 -2.3 1.9 -0.2 3.5 0 3.5 0.4 0 0.4 0.7 0.8 1.5 0.8 0.8 0 1.5 0.7 1.5 1.5 0 1.1 -1.2 1.5 -5 1.5 -4.2 0 -5 -0.3 -5 -1.9z"/>
  <path d="M168.8 138.3 c-1 -0.2 -1.8 -0.9 -1.8 -1.5 0 -0.7 2 -0.8 6.3 -0.4 3.4 0.4 6.7 0.8 7.4 0.9 0.7 0 1 0.4 0.7 0.9 -0.5 0.8 -9.5 0.9 -12.6 0.1z"/>
 </g>
 <g fill="#5e1d27">
  <path d="M144.2 384.9 c-8 -1.2 -27.5 -7.1 -36 -11 -9.3 -4.2 -15.8 -9.3 -30.8 -24.3 -14.1 -14.2 -21.8 -25.3 -28.7 -41.1 -8.2 -18.9 -10.1 -29.4 -9.4 -53 0.4 -14.1 0.9 -18.7 3.1 -27 5.2 -19.8 19.5 -44.3 33.8 -58.1 10.5 -10.1 18.1 -15.3 32.3 -22 12 -5.7 20.8 -8.4 34.9 -10.9 9.5 -1.6 29.8 -1.9 33.1 -0.5 1.3 0.5 -2.3 0.9 -10 1 -24 0.2 -42 4.1 -59.5 13.1 -13.4 6.8 -20.3 11.8 -31.3 22.6 -12.2 12 -17.7 20.4 -24.7 37.8 -4.9 12.3 -6 15.9 -8.1 26.9 -2 10.1 -1.9 20.9 0.2 22.2 0.5 0.3 0.9 1.5 0.9 2.8 0 2.2 0.6 2.3 11.3 3.5 12.4 1.3 25.9 1.2 26.8 -0.2 0.4 -0.5 2.3 -0.7 4.2 -0.3 3.5 0.6 3.7 0.9 4.8 6.6 0.8 4.4 1.6 6 2.8 6 1.2 0 1.3 0.2 0.3 0.9 -1.9 1.2 -0.5 6.1 1.8 6.1 1.5 0 3 1.8 3 3.6 0 0.2 -2 0.4 -4.5 0.4 -2.5 0 -4.5 0.4 -4.5 0.9 0 0.4 -4.3 0.8 -9.5 0.8 -5.2 0 -9.5 -0.4 -9.5 -0.8 0 -0.5 -0.4 -0.9 -1 -0.9 -1.8 0 -1.1 8.9 1 13 1.1 2.2 2 5.3 2 6.9 0 2 1.6 5.1 5 9.6 4.4 5.9 5 7.2 5 11.6 0 4.9 -2.3 8.9 -5.1 8.9 -0.6 0 2.3 3.2 6.5 7.1 4.2 3.9 7.9 8.2 8.2 9.5 0.3 1.3 1.3 2.4 2.1 2.4 1.4 0 7.8 4.2 9.8 6.5 0.6 0.6 2.4 1.6 4 2.2 1.7 0.6 6.8 2.6 11.5 4.3 11.3 4.2 18.1 6 25.4 6.6 10.1 0.9 10.6 1.1 10.6 4.4 0 3.4 -0.5 3.5 -11.8 1.9z"/>
  <path d="M167 384 c0 -1.3 0.7 -2 2 -2 1.1 0 2 -0.4 2 -1 0 -0.5 1.6 -1 3.6 -1 7.7 0 27.2 -5.9 41.3 -12.6 5.1 -2.4 10.2 -4.4 11.2 -4.4 1.1 0 1.9 -0.7 1.9 -1.5 0 -0.9 0.9 -1.5 2.5 -1.5 1.6 0 2.5 -0.6 2.5 -1.5 0 -1.1 1.2 -1.5 4.5 -1.5 3.3 0 4.5 0.4 4.5 1.5 0 3.3 -26 16.9 -41.8 21.9 -9.6 3 -23.4 5.6 -29.8 5.6 -3.7 0 -4.4 -0.3 -4.4 -2z"/>
  <path d="M427.1 293.4 c-0.1 -5.4 -0.3 -10 -0.6 -10.2 -0.2 -0.3 -4.3 -0.4 -9 -0.3 -8 0.2 -8.5 0.1 -8.5 -1.8 0 -1.4 0.6 -2.1 1.9 -2.1 1.1 0 2.1 -0.5 2.3 -1.1 0.2 -0.6 3.5 -1.3 7.3 -1.6 10.1 -0.7 10.3 -0.4 10.7 14.2 0.3 11.6 0.2 12 -1.8 12.3 -2.1 0.3 -2.2 -0.1 -2.3 -9.4z"/>
  <path d="M254.5 295.8 c-1.5 -4.2 -3.5 -10.1 -3.5 -10.4 0 -0.2 1.3 -0.4 2.9 -0.4 3.2 0 4.1 1.7 4.1 8.3 0 2.7 -0.4 3.7 -1.5 3.7 -0.9 0 -1.8 -0.6 -2 -1.2z"/>
  <path d="M385.8 282.3 c-1 -0.2 -1.8 -1.2 -1.8 -2.1 0 -0.9 -0.3 -4.1 -0.6 -6.9 -0.6 -4.9 -0.5 -5.3 1.4 -5.3 1.6 0 2.2 0.9 2.7 4.2 0.8 4.5 2.4 6.8 4.9 6.8 0.9 0 1.6 0.8 1.6 2 0 1.6 -0.6 2 -3.2 1.9 -1.8 -0.1 -4.1 -0.3 -5 -0.6z"/>
  <path d="M264 234.1 l-5.5 -0.6 -0.3 -4.7 c-0.2 -3.4 -0.9 -5.2 -2.3 -6.1 -1.8 -1.3 -1.9 -2.2 -1.3 -9.8 0.6 -7.5 1.3 -9.5 6 -18.8 9.5 -18.3 21.2 -32.5 36.5 -44.1 9 -6.7 28.5 -16.9 38.4 -19.9 19.7 -6.1 47 -6.7 70.2 -1.5 l7.3 1.6 0 3.7 c0 3.2 -1.1 4.7 -8.8 12.7 -4.8 5.1 -10.2 10.8 -12 12.8 l-3.4 3.6 -9.9 0 c-7.9 0 -10.1 0.3 -10.5 1.5 -0.5 1.1 -2.4 1.5 -7.8 1.5 -3.9 0.1 -9.6 0.7 -12.6 1.4 -15 3.6 -36.3 19.2 -46.3 33.9 -3 4.5 -7.4 10 -9.7 12.2 -4.5 4.3 -7 9 -7 13 0 1.8 -0.5 2.5 -2 2.5 -1.2 0 -2.2 0.9 -2.6 2.4 -0.9 3.6 -3.7 4 -16.4 2.7z"/>
  <path d="M96.3 227.5 c-1.3 -0.7 -7.1 -5.8 -13 -11.4 -9 -8.7 -10.4 -10.5 -9 -11.3 1.9 -1 2.3 -3.8 0.6 -3.8 -0.5 0 -0.7 -0.4 -0.4 -1 0.3 -0.5 1.5 -1 2.6 -1 1 0 1.9 -0.4 1.9 -1 0 -0.5 -0.5 -1 -1.2 -1 -0.7 0 0.3 -1.6 2.2 -3.5 1.9 -1.9 4 -3.5 4.7 -3.5 1.8 0 1.7 5.5 -0.2 7 -0.8 0.7 -1.5 1.9 -1.5 2.6 0 0.8 -0.6 1.4 -1.4 1.4 -0.8 0 -1.7 0.8 -2 1.7 -0.5 1.3 1.8 4.1 9.3 11.3 8.8 8.4 12.3 13.3 10.3 14.3 -0.4 0.2 -1.7 -0.2 -2.9 -0.8z"/>
  <path d="M87.6 188.9 c0.3 -0.6 0 -1.5 -0.7 -2 -1.1 -0.7 -0.9 -0.9 0.7 -0.9 1.2 0 2.5 -1 3.2 -2.4 1.1 -2.6 9.2 -9.6 11.1 -9.6 0.6 0 1.1 -0.4 1.1 -1 0 -0.5 0.7 -1 1.5 -1 0.8 0 1.5 -0.4 1.5 -0.9 0 -1.1 5.9 -3.3 7.1 -2.5 0.5 0.3 0.9 1.6 0.9 2.9 0 1.8 -0.7 2.6 -2.5 3.1 -1.4 0.3 -2.5 1 -2.5 1.5 0 0.5 -0.9 0.9 -2 0.9 -1.1 0 -2.3 0.7 -2.6 1.5 -0.4 0.8 -1.2 1.5 -2 1.5 -0.7 0 -2.3 1.4 -3.6 3 -1.5 2.1 -3 3 -5 3 -2.1 0 -2.8 0.5 -2.8 2 0 1.4 -0.7 2 -2.1 2 -1.2 0 -1.8 -0.4 -1.3 -1.1z"/>
  <path d="M216 174.7 c-2.5 -1.2 -5.1 -2.8 -5.8 -3.4 -0.7 -0.7 -2 -1.3 -2.8 -1.3 -0.8 0 -1.4 -0.4 -1.4 -1 0 -0.5 -0.9 -1 -2 -1 -2.2 0 -7.2 -2 -8.1 -3.3 -0.3 -0.5 -2.5 -1.1 -4.8 -1.4 -3 -0.4 -4.1 -1 -4.1 -2.3 0 -2.5 2.8 -3.3 4.7 -1.4 0.9 0.8 2.4 1.3 3.4 1.1 1.1 -0.3 1.9 -0.1 1.9 0.5 0 0.6 0.7 0.8 1.5 0.4 0.8 -0.3 1.5 -0.1 1.5 0.5 0 0.6 0.7 0.9 1.5 0.5 0.8 -0.3 1.5 -0.1 1.5 0.5 0 0.6 0.5 0.7 1 0.4 0.6 -0.3 1 -0.1 1 0.5 0 0.6 0.5 0.8 1 0.5 0.6 -0.3 1 -0.2 1 0.4 0 0.6 0.6 0.8 1.3 0.5 0.7 -0.2 2.2 0.4 3.4 1.5 1.1 1.1 2.3 1.7 2.7 1.4 0.3 -0.3 0.8 0.2 1.2 1.1 0.3 0.9 1 1.4 1.4 1.1 0.4 -0.3 1.8 0.3 3.1 1.4 2.1 1.7 6.4 1.8 5.4 0.1 -0.3 -0.5 1.7 -2.8 4.5 -5.1 2.7 -2.3 5 -4.5 5 -4.9 0 -1.2 -10.4 -7.7 -20.7 -12.9 -5.5 -2.7 -13.7 -5.9 -18.2 -7 -9.4 -2.4 -14.1 -4.5 -7.6 -3.5 12.4 1.9 28.2 7.6 39.9 14.5 9.1 5.4 10.6 6.7 10.6 9.6 0 1.6 -0.6 2.3 -2 2.3 -1.4 0 -2 0.7 -2 2.1 0 1.1 -1.8 3.8 -4 6 -4.7 4.6 -8.2 5 -15 1.6z"/>
  <path d="M115.5 167.9 c-1.6 -2.5 13.2 -9 21.3 -9.3 3.1 -0.1 5.6 -0.7 6.1 -1.4 0.5 -0.9 1.7 -1.1 3.6 -0.6 1.7 0.4 3 0.2 3.5 -0.5 1.1 -1.9 6 -0.3 6 1.9 0 1.6 -1.2 2 -8 2.6 -4.4 0.3 -8 1.1 -8 1.5 0 0.5 -1.8 0.9 -4 0.9 -2.2 0 -4.3 0.6 -4.7 1.3 -1.9 3.2 -14.3 6.1 -15.8 3.6z"/>
  <path d="M176 159.1 c0 -1.2 0.9 -2 2.5 -2.3 1.4 -0.3 2.5 -0.1 2.5 0.3 0 0.5 0.7 0.9 1.5 0.9 0.8 0 1.5 0.7 1.5 1.5 0 1.1 -1.1 1.5 -4 1.5 -3.3 0 -4 -0.4 -4 -1.9z"/>
 </g>
 <g fill="#53151f">
  <path d="M153 384.6 c0 -1.8 -4 -3.2 -4.9 -1.8 -0.4 0.6 -1.8 1.3 -3.3 1.6 -2 0.3 -2.5 0.1 -2.1 -1 0.6 -1.6 -1.2 -1.9 -2.2 -0.4 -1 1.5 -2.5 1.2 -2.5 -0.6 0 -1.1 -0.6 -1.4 -2 -0.9 -1.2 0.4 -2 0.2 -2 -0.5 0 -0.7 -0.7 -1 -1.5 -0.6 -0.8 0.3 -1.5 0.1 -1.5 -0.5 0 -0.7 -1 -0.9 -2.5 -0.5 -1.6 0.4 -2.5 0.2 -2.5 -0.5 0 -0.8 -0.5 -0.8 -1.5 0.1 -1.3 1.1 -1.4 1 -0.8 -0.5 0.5 -1.4 0.3 -1.7 -1 -1.2 -0.9 0.3 -1.7 0.2 -1.7 -0.3 0 -1.5 -4 -2.2 -5.6 -0.9 -1.2 1 -1.3 0.9 -0.8 -0.5 0.6 -1.5 0.2 -1.8 -2.8 -2 -0.7 -0.1 -1.9 -0.7 -2.7 -1.4 -0.7 -0.7 -2 -1.1 -2.7 -0.8 -0.8 0.3 -1.4 0.1 -1.4 -0.4 0 -0.6 -0.3 -0.9 -0.7 -0.8 -0.5 0.1 -2.1 -1 -3.8 -2.5 -1.8 -1.7 -3.1 -2.4 -3.3 -1.7 -0.3 0.7 -1 0.1 -1.6 -1.2 -0.7 -1.3 -1.9 -2.2 -2.9 -2 -1.1 0.2 -2.1 -0.9 -3 -3 -0.8 -1.8 -4.5 -6.2 -8.3 -9.7 -6.2 -5.8 -16 -17.3 -12.4 -14.5 2.4 1.8 7.9 1.3 8.6 -0.8 0.3 -1 1 -1.6 1.5 -1.3 0.5 0.4 0.9 -0.5 0.9 -1.9 0 -1.4 -2.1 -5.3 -5 -9.1 -3.4 -4.5 -5.1 -7.8 -5.4 -10.3 -0.2 -2 -1.6 -6.4 -3 -9.7 -2.8 -6.5 -3.2 -8.5 -1.6 -8.5 0.6 0 1 -0.4 1 -1 0 -0.5 -0.7 -1 -1.6 -1 -1 0 -1.4 -0.7 -1.2 -2.2 0.3 -2 1 -2.3 5.2 -2.6 3.2 -0.2 5.2 0.1 5.7 1 0.6 0.8 0.9 0.9 0.9 0.2 0 -0.7 1.7 -1.2 4 -1.2 3.6 -0.1 4 0.2 4 2.3 0 2.1 -0.6 2.5 -4.5 3.1 -2.5 0.3 -5.4 0.4 -6.5 0.1 -1.1 -0.3 -2 -0.4 -2 -0.4 0.3 3.6 5.3 15.2 7.6 17.5 0.8 0.7 1.4 2.4 1.4 3.8 0 1.3 0.9 2.9 2 3.6 1.1 0.7 2 1.9 2 2.7 0 1.8 13.8 15.9 22.1 22.6 10.2 8.3 27.1 15.9 42.2 19.1 27 5.6 59.6 -4.2 82.3 -24.8 6.4 -5.9 8 -6.8 11.2 -6.8 3.2 0 4.5 0.8 8.6 4.9 6.2 6.3 7.8 12.1 4.4 15.9 -3.6 3.8 -13.8 11.4 -13.8 10.3 0 -0.6 -0.6 -1.1 -1.4 -1.1 -0.9 0 -1.2 0.7 -0.9 1.9 0.3 1.1 -0.2 2.1 -1.1 2.4 -0.9 0.4 -1.6 0.2 -1.6 -0.3 0 -0.6 -0.7 -1 -1.5 -1 -0.9 0 -1.2 0.6 -0.8 1.6 0.7 1.9 -1.8 3.8 -2.8 2.2 -0.5 -0.8 -3.9 0.3 -10.6 3.4 -9.9 4.7 -22.3 9.1 -28.8 10.4 -1.9 0.3 -3.5 1 -3.5 1.5 0 0.5 -0.7 0.6 -1.5 0.3 -0.8 -0.3 -2.2 0.1 -3 1 -1.9 1.8 -3.5 2.1 -3.5 0.6 0 -0.5 -1.1 -1 -2.5 -1 -1.5 0 -2.5 0.6 -2.5 1.4 0 1.1 -2.3 1.4 -10.5 1.5 -8.6 0.1 -10.5 -0.1 -10.5 -1.3z"/>
  <path d="M273.8 330.7 c-10.7 -14.3 -18.8 -30.2 -19.3 -38 -0.1 -2.1 -0.9 -4.3 -1.7 -5 -4.6 -3.7 -7.3 -39.2 -4.4 -57.2 4.3 -26.2 18.3 -52.5 37.8 -71 10.5 -10 18.8 -15.6 33.8 -22.9 17.3 -8.5 27.4 -10.7 49.8 -11.3 18.6 -0.6 28.2 0.3 39 3.3 l5.2 1.5 0 5.8 c0 4.7 -0.4 6.1 -2.3 7.9 -1.3 1.2 -3 2.2 -3.7 2.2 -2 0 -7 5.1 -7 7 0 2.1 -2.8 4.7 -5.5 5.2 -1.3 0.2 -2.1 1.2 -2.3 3.1 -0.3 2.1 -0.9 2.7 -2.8 2.7 -1.3 0 -2.4 0.5 -2.4 1 0 1.5 -7.7 1.2 -8.3 -0.2 -0.4 -1 -0.6 -1 -0.6 0 -0.1 0.8 -2.2 1.2 -6.9 1.2 -3.8 0 -9.3 0.4 -12.3 1 -3 0.5 -8.3 1.4 -11.8 2 -3.5 0.7 -8.1 2.2 -10.2 3.6 -2.1 1.3 -4.2 2.4 -4.6 2.5 -2.3 0.1 -11.8 7.7 -12.1 9.6 -0.2 1.5 -1.1 2.3 -3 2.5 -1.8 0.2 -2.8 1 -3 2.3 -0.5 2.5 -3.1 5.5 -4.9 5.5 -0.7 0 -1.3 0.8 -1.3 1.8 0 1 -1.3 3.2 -2.9 5 -1.6 1.7 -3.2 4.1 -3.6 5.2 -0.3 1.1 -1.1 2 -1.6 2 -0.5 0 -0.9 0.6 -0.9 1.3 0 0.8 -0.9 2.4 -2 3.7 -1.1 1.3 -2 2.9 -2 3.7 0 0.7 -0.4 1.3 -0.9 1.3 -0.5 0 -1.1 1.5 -1.4 3.3 -0.3 1.7 -1.5 7.3 -2.7 12.2 -1.8 7.6 -2.1 10.9 -1.6 21 0.3 6.6 1.2 14.6 2.1 17.8 0.8 3.2 1.5 7.1 1.5 8.7 0 4.2 3.8 12.1 11.4 23.4 5.5 8.4 6.6 10.7 6.6 14.2 0 5.4 -1.6 7 -8.8 8.4 -3.1 0.6 -8.6 2 -12.1 3.1 -3.5 1 -7.3 1.9 -8.3 1.9 -1.1 0 -1.8 0.7 -1.8 2 0 3.2 -1.2 2.4 -6.2 -4.3z m2.2 -99.7 c0.5 0 1.1 -1.3 1.5 -2.9 0.5 -2.2 1 -2.8 2.6 -2.4 1.5 0.4 1.9 0 1.9 -2.1 0 -4.1 2.5 -8.7 7 -13.1 2.3 -2.2 6.7 -7.7 9.7 -12.2 10.7 -15.7 31.3 -30.3 48.7 -34.5 4.4 -1 8.6 -1.6 9.3 -1.4 0.7 0.3 1.3 0.1 1.3 -0.4 0 -1.4 4.7 -1.2 5.6 0.1 0.5 0.8 1 0.6 1.6 -0.5 0.7 -1.3 2.7 -1.6 10.8 -1.6 l9.8 0 3.4 -3.6 c1.8 -2 7.1 -7.7 11.8 -12.6 4.7 -4.9 8.6 -9.3 8.8 -9.8 0.4 -1 -12.1 -3.8 -22.8 -5 -23.8 -2.7 -47.8 1.4 -68.5 11.8 -20.8 10.4 -36.7 24.8 -50.1 45.3 -7.9 12.3 -9.5 16.2 -10.3 25.6 -0.6 7 -0.5 7.2 2.2 8.8 2.6 1.6 3.7 4.5 1.6 4.5 -0.6 0 -0.9 1.2 -0.7 2.8 0.3 2.5 0.6 2.7 5 2.7 2.6 0.1 5.1 0.4 5.5 0.8 0.4 0.4 1.3 0.5 2.1 0.2 0.7 -0.3 1.7 -0.5 2.2 -0.5z"/>
  <path d="M426.4 311.7 c-1.6 -1.9 -2.6 -6.5 -1.5 -7.2 2.6 -1.5 5.3 -10.5 3.3 -10.5 -0.5 0 -0.8 -2.9 -0.6 -6.5 0.2 -5.6 0 -6.7 -1.8 -7.6 -2.6 -1.4 -10.1 -0.2 -9.4 1.6 0.4 1 -2.5 1.3 -13.7 1.3 -14.1 0 -14.2 0 -16.5 -2.6 -1.2 -1.4 -2 -3.2 -1.8 -3.9 0.3 -0.7 0.2 -1.4 -0.2 -1.7 -1.2 -0.7 -1.4 -15.1 -0.3 -19.4 0.8 -2.8 1.8 -4.2 3.4 -4.6 1.2 -0.3 19.6 -0.6 41 -0.6 l38.7 0 0 22.7 c0 22.4 0 22.7 -2.5 26.9 -3 5.1 -3.3 5.3 -16 9.9 -10.3 3.7 -19.9 4.7 -22.1 2.2z"/>
  <path d="M94 292 c0 -0.5 -2.1 -0.7 -5 -0.3 -4.9 0.6 -5 0.5 -5 -2.2 0 -2.3 0.2 -2.6 1.5 -1.5 0.9 0.7 1.5 0.8 1.5 0.2 0 -0.6 2.4 -1.2 5.4 -1.4 5.3 -0.3 5.5 -0.2 7 3 l1.6 3.2 -3.5 0 c-1.9 0 -3.5 -0.4 -3.5 -1z"/>
  <path d="M43 225.2 c0 -0.5 0.3 -1.2 0.7 -1.6 0.4 -0.3 0.8 -1.4 0.9 -2.3 0.4 -2.3 6.6 -16.4 7.1 -15.9 0.2 0.2 -1.2 4.5 -3.1 9.5 -2 5 -3.6 9.5 -3.6 10.1 0 0.5 -0.4 1 -1 1 -0.5 0 -1 -0.4 -1 -0.8z"/>
  <path d="M86.5 217.4 l-9 -8.4 3.6 0 c4.2 0 5.9 1.5 5.9 5.2 0 2.5 0.3 2.8 3.4 2.8 4.1 0 5.8 1.9 5.4 5.8 -0.3 2.9 -0.3 2.9 -9.3 -5.4z"/>
  <path d="M66.8 180.4 c4.4 -5.8 16.9 -17.5 24.1 -22.3 8.8 -6 10.9 -6.3 2.6 -0.4 -7.5 5.3 -19.5 15.9 -25.8 22.7 l-3.9 4.1 3 -4.1z"/>
  <path d="M101 176.1 c0 -1.4 2.8 -3.3 4 -2.6 0.5 0.3 1 -0.1 1 -0.9 0 -0.9 0.5 -1.6 1 -1.6 0.6 0 1 1.4 1 3 0 2.8 -0.3 3 -3.5 3 -1.9 0 -3.5 -0.4 -3.5 -0.9z"/>
  <path d="M218 174.1 l0 -2.8 3.5 1.6 c4.5 2.1 4.5 4.1 0 4.1 -3.2 0 -3.5 -0.3 -3.5 -2.9z"/>
  <path d="M114 168.6 c0 -1.9 1.5 -2.8 5.1 -3.2 2.5 -0.3 2.9 0 2.9 2.1 0 2.2 -0.4 2.5 -4 2.5 -2.8 0 -4 -0.4 -4 -1.4z"/>
  <path d="M125 164 c0 -0.5 0.7 -1 1.5 -1 0.8 0 1.5 -0.5 1.5 -1 0 -1.5 4.4 -3 6.9 -2.3 2.8 0.7 2.7 3.9 -0.1 4.7 -3.6 0.9 -9.8 0.7 -9.8 -0.4z"/>
  <path d="M231.5 157.9 c-2.2 -1.7 -7 -4.6 -10.7 -6.6 -6.8 -3.5 -9.3 -6.2 -4 -4.2 6.5 2.4 19.2 10.5 19.2 12.2 0 2.1 0.3 2.2 -4.5 -1.4z"/>
  <path d="M102.1 151.6 c1 -0.9 6.9 -3.6 6.9 -3.2 0 0.6 -5.5 3.6 -6.6 3.6 -0.4 0 -0.5 -0.2 -0.3 -0.4z"/>
  <path d="M129.5 140.4 c2.4 -0.9 14.6 -3.1 13.8 -2.4 -0.4 0.4 -3.5 1.2 -6.7 1.9 -5.8 1.1 -9.1 1.3 -7.1 0.5z"/>
 </g>
 <g fill="#242424">
  <path d="M23 260.5 c0 -0.8 -0.4 -1.5 -1 -1.5 -0.5 0 -2.3 -1.4 -4 -3 -3.4 -3.3 -3.4 -2.5 -0.9 -19.5 5.9 -39.1 31 -77.5 65.5 -100.2 41 -26.9 92.4 -31.7 137.2 -12.8 11.1 4.7 25.8 12.9 31.5 17.6 l3.1 2.6 -2.7 3.7 c-1.6 2 -3.5 3.6 -4.3 3.6 -0.8 0 -4.6 -2.1 -8.5 -4.6 -23.7 -15.4 -54.4 -23.7 -81.8 -22 -12.3 0.7 -32.1 4.6 -42.3 8.2 -23.2 8.3 -49.1 28 -62.6 47.7 -14.4 20.9 -22.9 45.6 -24.8 72 -0.6 8.5 -0.9 9.7 -2.5 9.7 -1.1 0 -1.9 -0.7 -1.9 -1.5z"/>
  <path d="M94.8 225.2 c-1.8 -2.2 -7.3 -7.4 -12.1 -11.7 -6.1 -5.4 -8.5 -8.1 -7.7 -8.9 0.5 -0.5 1 -1.8 1 -2.8 0 -0.9 0.9 -2.2 2 -2.8 1.1 -0.6 2 -1.6 2 -2.3 0 -0.7 0.6 -1.9 1.3 -2.5 0.6 -0.7 1.2 -1.8 1.2 -2.5 0 -0.7 1 -1.3 2.3 -1.5 1.3 -0.2 2.6 -1.1 2.9 -2 1 -2.3 3.6 -5.2 4.8 -5.2 0.6 0 2.1 -1.3 3.3 -3 1.3 -1.6 2.9 -3 3.6 -3 0.8 0 1.6 -0.7 2 -1.5 0.3 -0.8 1.5 -1.5 2.6 -1.5 1.1 0 2 -0.7 2 -1.5 0 -0.9 0.6 -1.5 1.3 -1.4 2.6 0.3 3.7 -0.2 3.7 -1.7 0 -1 0.6 -1.4 1.4 -1.1 0.8 0.3 1.7 -0.1 2 -1 0.4 -0.8 1.3 -1.3 2 -1 0.8 0.3 3.2 -0.2 5.3 -1.2 6.8 -3.3 20.1 -7 29.4 -8.3 7.3 -0.9 11.5 -0.9 21.7 0.2 7 0.7 13.7 1.4 15 1.4 1.2 0.1 2.2 0.4 2.2 0.8 0 0.3 1.4 1 3.2 1.3 1.8 0.4 5.3 1.6 7.8 2.7 2.5 1.1 5.3 2 6.3 2.1 0.9 0.1 1.7 0.5 1.7 1 0 0.4 0.4 0.6 0.9 0.3 0.4 -0.3 1.6 0.3 2.6 1.4 1 1.1 2.2 1.7 2.6 1.4 0.5 -0.3 0.9 0 0.9 0.5 0 0.6 0.6 1.1 1.4 1.1 0.7 0 1.9 0.7 2.6 1.5 0.7 0.8 2 1.5 2.9 1.5 2.5 0 12.7 -11.7 12.3 -14.1 -0.2 -1 0 -1.9 0.4 -1.9 0.8 0 13.8 9.6 15.2 11.3 0.6 0.7 0.7 1.8 0.3 2.5 -1.6 2.6 -37.4 38.2 -38.4 38.2 -0.6 0 -4.2 -2.2 -8.1 -4.9 -15.8 -10.9 -24.2 -13.6 -41.6 -13.5 -14.9 0.1 -22.3 1.8 -32.8 7.4 -13.3 7.2 -23.1 15.9 -28.7 25.4 -1.5 2.5 -2.8 4.6 -3 4.6 -0.2 0 -1.8 -1.7 -3.7 -3.8z"/>
  <path d="M391 183.9 c-1.4 -0.4 -4.2 -0.7 -6.2 -0.8 -3.4 -0.1 -3.8 -0.4 -3.8 -2.7 l0 -2.7 6.2 0.7 c3.5 0.4 6.4 0.9 6.6 1.1 0.2 0.2 0.2 1.4 0 2.7 -0.3 2 -0.7 2.3 -2.8 1.7z"/>
 </g>
 <g fill="#3b0f16">
  <path d="M349.5 377 c-28.7 -5.7 -56.5 -22.2 -73.2 -43.2 -1.6 -2.2 -0.4 -3.2 5.2 -4.5 7.9 -1.8 17.7 -4.2 21.7 -5.3 6.2 -1.8 5.9 -3.9 -2.6 -16.8 -8.2 -12.6 -13.6 -25 -11.4 -26.4 1 -0.6 0.8 -0.8 -0.4 -0.8 -2.1 0 -2.4 -1.6 -0.5 -2.3 0.7 -0.3 0.5 -0.6 -0.5 -0.6 -1.9 -0.1 -2.6 -2.1 -0.8 -2.1 0.6 0 1 -0.7 1 -1.5 0 -0.8 -0.7 -1.5 -1.5 -1.5 -0.8 0 -1.5 -0.4 -1.5 -1 0 -0.5 0.5 -1 1 -1 0.6 0 1 -0.7 1 -1.5 0 -0.8 0.9 -1.5 2 -1.5 1.3 0 2 0.7 2 2 0 1.1 1.4 6.3 3.1 11.6 3.9 11.8 10.5 22.1 20.6 32.1 9 8.9 16.2 13.8 27.8 19 12.1 5.4 18.6 6.7 33.5 6.7 10.8 -0.1 13.9 -0.5 22 -2.9 5.2 -1.6 10.2 -3.4 11 -4.1 0.8 -0.6 3.3 -1.7 5.5 -2.4 6.7 -2 7.6 -3.1 8.6 -11.1 0.5 -4 0.6 -8.2 0.3 -9.2 -0.3 -1.1 0.1 -2.6 1.1 -3.7 1.9 -2.1 3.5 -1.8 3.5 0.6 0 2.3 2.5 4.4 5.3 4.4 2.3 0 19.8 -5.9 23.8 -8 1 -0.6 3 -3 4.4 -5.4 2.6 -4.4 2.6 -4.4 2.3 -25.6 l-0.3 -21.1 3 0.3 3 0.3 0.3 37.3 c0.1 24.6 -0.1 37.2 -0.8 37.2 -1.4 0 -1.3 8.3 0.2 11.5 1.4 3.1 -0.2 5.1 -11.2 13.5 -19.2 14.6 -36.9 22.8 -58.7 27 -13.7 2.6 -36.8 2.6 -49.8 0z"/>
  <path d="M157 366.3 c-18.6 -1.3 -41.4 -9.9 -54.9 -20.8 -7.3 -5.8 -23.6 -22.4 -22.8 -23.1 0.2 -0.3 -0.9 -1.9 -2.6 -3.5 -2.4 -2.5 -2.8 -3.3 -1.6 -4 1.1 -0.7 1 -0.9 -0.6 -0.9 -1.7 0 -1.7 -0.2 -0.5 -1 1.3 -0.8 1.2 -1 -0.3 -1 -1 0 -1.5 -0.4 -1.2 -1 0.3 -0.5 0.1 -1 -0.5 -1 -0.6 0 -0.8 -0.4 -0.5 -1 0.3 -0.5 0.1 -1 -0.5 -1 -0.6 0 -0.8 -0.4 -0.5 -1 0.3 -0.5 0.1 -1 -0.5 -1 -0.6 0 -0.8 -0.4 -0.5 -1 0.3 -0.5 0.1 -1 -0.5 -1 -0.6 0 -0.9 -0.4 -0.6 -0.9 0.4 -0.5 0 -1.2 -0.6 -1.4 -1 -0.4 -1 -0.6 -0.1 -0.6 0.7 -0.1 1 -0.8 0.7 -1.6 -0.4 -1 0 -1.5 1.5 -1.5 1.7 0 2.9 1.5 5.3 6.8 3.4 7.3 8.1 14.4 13.9 20.8 2 2.2 3.8 4.5 4 5 1.3 3.2 27.5 21.4 30.8 21.4 0.7 0 2.5 0.6 3.9 1.4 5.1 2.6 7.8 3.4 16.2 5 9.5 1.8 26.2 2.1 32.7 0.6 2.4 -0.6 7.3 -1.4 10.9 -1.9 3.6 -0.6 7.4 -1.7 8.3 -2.5 1 -0.9 2.7 -1.6 3.9 -1.6 1.2 0 2.2 -0.4 2.2 -1 0 -0.5 0.9 -1 1.9 -1 1.1 0 2.6 -0.6 3.3 -1.2 0.7 -0.7 3.1 -2.2 5.3 -3.3 2.2 -1.1 4.7 -2.8 5.6 -3.7 0.9 -1 2 -1.8 2.5 -1.8 0.5 0 4.9 -3.6 9.8 -8 l8.9 -7.9 9.1 8.6 c5 4.7 9.5 9.1 9.9 9.9 0.6 1 -0.7 2.9 -3.9 6.2 -2.6 2.6 -3.9 3.7 -2.9 2.4 1.5 -1.8 1.6 -2.5 0.7 -3.1 -0.7 -0.4 -1 -1.5 -0.7 -2.3 0.7 -1.9 -2.4 -8.6 -5.1 -10.9 -4.3 -3.8 -5.8 -3.4 -13.7 3.8 -13 11.8 -30.7 21 -47.1 24.5 -5.6 1.2 -23 2.4 -28.6 2.1z"/>
  <path d="M66 291.1 c0 -1.1 -0.6 -2.2 -1.2 -2.5 -0.7 -0.3 -0.1 -0.4 1.5 -0.2 1.5 0.2 2.7 0 2.7 -0.5 0 -1.1 2.6 -0.5 4.5 1.1 1.4 1.1 1.8 1.1 2.5 0 0.4 -0.7 1.5 -1 2.4 -0.7 0.9 0.4 1.6 0.2 1.6 -0.3 0 -1.4 4.4 -1.2 5.8 0.2 1 1 1.5 1 2 0.1 0.8 -1.3 9.2 -0.6 9.2 0.8 0 0.5 0.5 0.8 1.2 0.7 0.6 -0.2 1.4 0.5 1.6 1.5 0.3 1.6 -1 1.7 -16.7 1.7 -16.2 0 -17.1 -0.1 -17.1 -1.9z"/>
  <path d="M286 256.5 c0 -0.8 -0.7 -1.5 -1.5 -1.5 -0.8 0 -1.5 -0.9 -1.5 -2 0 -1.1 0.7 -2 1.5 -2 0.8 0 1.5 -0.7 1.5 -1.5 0 -0.8 0.7 -1.5 1.5 -1.5 1.1 0 1.5 1.2 1.5 5 0 3.8 -0.4 5 -1.5 5 -0.8 0 -1.5 -0.7 -1.5 -1.5z"/>
  <path d="M286 242 c0 -1.1 -0.4 -2 -1 -2 -0.5 0 -1 -0.4 -1 -1 0 -0.5 0.7 -1 1.5 -1 0.8 0 1.5 -0.7 1.5 -1.5 0 -0.8 0.7 -1.5 1.5 -1.5 1.1 0 1.5 1.2 1.5 4.5 0 3.8 -0.3 4.5 -2 4.5 -1.3 0 -2 -0.7 -2 -2z"/>
  <path d="M288.5 229.4 c0.4 -2.6 0.2 -3.9 -0.7 -4.5 -1 -0.7 -0.9 -0.9 0.4 -0.9 2.1 0 3.5 -4 1.8 -5 -1.5 -0.9 -0.4 -3 1.6 -3 1.7 0 1.9 -1.6 0.2 -2.3 -0.7 -0.3 -0.4 -0.6 0.7 -0.6 1.7 -0.1 1.7 -0.3 0.5 -1.1 -1.2 -0.8 -1.1 -1 0.6 -1 2.5 0 4.1 -3 2.2 -4.2 -0.9 -0.5 -0.6 -0.8 0.8 -0.8 2.5 0 4.1 -3 2.2 -4.2 -0.9 -0.5 -0.7 -0.8 0.8 -0.8 2.4 0 7.4 -6.2 5.6 -6.8 -1.7 -0.5 -0.4 -2.2 1.7 -2.2 2.1 0 5.5 -3.5 4.7 -4.8 -0.9 -1.5 3.1 -4.5 5 -3.8 1.1 0.4 1.5 0.2 1.1 -0.8 -0.8 -2.1 3 -5.1 14 -11.3 9.7 -5.3 12.2 -6.2 20.6 -6.6 1.5 -0.1 2.7 -0.6 2.7 -1.1 0 -0.4 1.1 -0.5 2.4 -0.2 1.4 0.3 2.6 0.1 2.8 -0.5 0.3 -0.8 1.5 -0.9 3.6 -0.4 3.9 0.8 4.7 4.5 1 4.5 -4.8 0 -18.4 4.2 -25.2 7.6 -7.6 3.9 -17.6 10.5 -21.2 14.2 -1.3 1.2 -3.4 2.2 -4.8 2.2 -2.1 0 -2.5 0.5 -2.8 3.3 -0.3 2.8 -0.7 3.2 -3.5 3.5 -3.1 0.3 -3.3 0.6 -3.3 4.3 0 2.8 -0.4 3.9 -1.5 3.9 -0.9 0 -1.5 0.9 -1.5 2.5 0 1.6 -0.6 2.5 -1.5 2.5 -0.8 0 -1.5 0.9 -1.5 2 0 1.9 -2.9 9 -4.1 10 -0.3 0.3 -0.9 2.6 -1.3 5.3 -0.6 3.8 -1.1 4.7 -2.8 4.7 -1.8 0 -1.9 -0.4 -1.3 -3.6z"/>
  <path d="M95.9 226.3 c-1.4 -1.6 -2.9 -3.5 -3.5 -4.3 -0.5 -0.9 0.3 -0.3 1.7 1.4 1.9 2.1 3.2 2.8 4.7 2.4 1.9 -0.5 2 -0.3 1.1 1.3 -1.2 2.4 -1.1 2.4 -4 -0.8z"/>
  <path d="M81.6 212.6 c-5.1 -4.6 -7.5 -7.5 -6.8 -8 0.7 -0.4 1.2 -1.6 1.2 -2.6 0 -1.1 0.9 -2.4 2 -3 1.1 -0.6 2 -1.7 2 -2.4 0 -0.8 0.7 -1.9 1.5 -2.6 0.8 -0.6 1.3 -1.7 1.2 -2.3 -0.1 -0.7 0.7 -1.2 1.7 -1.2 1 0 2.4 -0.9 3 -1.9 1.9 -3.3 4 -5.6 5.1 -5.6 0.6 0 2.1 -1.3 3.3 -3 1.3 -1.6 2.9 -3 3.6 -3 0.8 0 1.6 -0.7 2 -1.5 0.3 -0.8 1.5 -1.5 2.6 -1.5 1.1 0 2 -0.7 2 -1.5 0 -0.9 0.6 -1.5 1.3 -1.4 2.6 0.3 3.7 -0.2 3.7 -1.7 0 -0.9 0.6 -1.4 1.3 -1.1 0.6 0.2 1.7 -0.3 2.3 -1.1 0.6 -0.9 1.6 -1.2 2.3 -0.8 0.8 0.5 -1.9 2.9 -7.7 6.6 -4.9 3.1 -10.8 7.5 -13.1 9.6 -3.9 3.4 -17.6 19.1 -19.4 22.1 -0.5 0.8 1.9 3.8 6.5 8.3 4 3.8 7.1 7 6.8 6.9 -0.3 0 -4.1 -3.3 -8.4 -7.3z"/>
  <path d="M264.9 186.2 c6.1 -12 23.5 -30.7 36.9 -39.6 10.8 -7.1 28.7 -15.3 39.7 -18.1 11.4 -3 31.7 -4.6 32.9 -2.6 0.5 0.8 -1.1 1.1 -5.7 1.1 -13.6 0 -33.1 4.7 -48.4 11.6 -19.9 9.1 -39.8 26.4 -53 46.2 -4.1 6.1 -5.1 6.7 -2.4 1.4z"/>
  <path d="M217.9 174.7 c-2.5 -1.8 -6.4 -4.1 -8.7 -5.2 -4.4 -2.1 -5.6 -4.5 -2.2 -4.2 1.1 0.1 2 0.5 2 1 0 0.4 0.4 0.6 0.9 0.3 0.4 -0.3 1.6 0.3 2.6 1.4 1 1.1 2.2 1.7 2.6 1.4 0.5 -0.3 0.9 0 0.9 0.5 0 0.6 0.6 1.1 1.4 1.1 0.7 0 1.9 0.7 2.6 1.5 2.6 3.2 4.4 2.1 13.7 -8.7 l2.4 -2.7 -5.1 -4 c-2.9 -2.3 -4.6 -4.1 -3.8 -4.1 1.8 0 13.1 7.4 11.9 7.8 -0.5 0.2 -0.7 1 -0.4 1.8 0.5 1.5 -13.1 15.4 -15.2 15.4 -0.5 0 -3.1 -1.5 -5.6 -3.3z"/>
  <path d="M373 164.5 c0 -0.8 0.7 -1.5 1.5 -1.5 0.8 0 1.5 -0.4 1.5 -1 0 -1.5 6.7 -1.2 7.3 0.3 0.3 0.8 0.9 0.6 1.9 -0.7 0.9 -1.2 2.1 -1.7 3.2 -1.3 0.9 0.4 1.6 0.2 1.6 -0.3 0 -0.6 -0.5 -1 -1.2 -1 -0.6 0 -0.3 -0.9 0.7 -2 1 -1.1 2.6 -2 3.5 -2 2 0 5.6 -3.7 4.6 -4.7 -0.9 -1 5.5 -7.3 7.4 -7.3 2.2 0 6.9 -5.1 5.3 -5.7 -1 -0.3 -1 -0.9 0 -2.3 0.7 -1.3 0.8 -2.3 0.2 -2.9 -1.2 -1.1 -14.3 -3.9 -22.6 -4.8 -3.2 -0.3 -5.9 -1 -5.9 -1.4 0 -3.3 35.3 3.2 36.7 6.7 0.2 0.6 -0.6 2.8 -1.7 4.8 -1.7 2.8 -2.8 3.6 -5.1 3.6 -2.4 0 -2.9 0.4 -2.9 2.6 0 3.8 -5.8 10.4 -9.2 10.4 -2.4 0 -2.8 0.4 -2.8 2.8 0 1.8 -1.1 3.8 -3.4 6 -3.3 3.1 -3.7 3.2 -12 3.2 -7 0 -8.6 -0.3 -8.6 -1.5z"/>
  <path d="M187.8 161.3 c-2.4 -0.6 -2.3 -1.9 0.2 -2.6 1.1 -0.3 2 -0.1 2 0.4 0 0.5 0.7 0.9 1.5 0.9 0.8 0 1.5 0.5 1.5 1 0 1 -2.1 1.1 -5.2 0.3z"/>
  <path d="M219.8 150.4 c-4.5 -2.4 -3.2 -3.6 1.5 -1.3 5.2 2.7 5.5 2.9 3.1 2.9 -1 -0.1 -3.1 -0.8 -4.6 -1.6z"/>
  <path d="M376.5 126 c0.3 -0.5 1.5 -1 2.6 -1 1.1 0 1.7 0.5 1.4 1 -0.3 0.6 -1.5 1 -2.6 1 -1.1 0 -1.7 -0.4 -1.4 -1z"/>
 </g>
 <g fill="#010000">
  <path d="M70 374.7 c-26.3 -20.8 -46.5 -55.4 -52.7 -90.2 -1.4 -8.1 -2.2 -30.6 -1.3 -39 0.7 -6.9 2.1 -15.1 2.9 -17 0.5 -1.1 1.5 -4.7 2.2 -8 0.7 -3.3 1.7 -6.6 2.2 -7.2 0.5 -0.7 0.6 -1.3 0.3 -1.3 -0.4 0 -0.1 -1 0.6 -2.2 0.7 -1.3 1.3 -2.5 1.3 -2.8 0.9 -3.8 1.9 -6 2.7 -6 1 0 0.3 3.1 -1.8 7.1 -3.1 6.2 -6.6 23.4 -6.8 33.4 -0.1 9.1 0.1 10.2 2.1 12.3 2.8 2.7 4 2.8 4.6 0.5 0.3 -1 0.5 -0.2 0.5 1.7 0 1.9 0.3 5.3 0.5 7.5 0.3 2.2 0.8 7.3 1.2 11.2 0.3 4 1.7 11.8 3.1 17.4 6.7 27.8 20.9 51.2 44.2 72.8 l9.3 8.7 -2.7 2.7 c-3.7 3.7 -6 3.4 -12.4 -1.6z"/>
  <path d="M159.5 363 c-12.9 -0.6 -22.8 -1.9 -28.5 -3.7 -0.8 -0.2 -1.6 -0.4 -1.8 -0.3 -0.2 0.1 -1.4 -0.6 -2.8 -1.5 -1.4 -0.9 -3.5 -1.8 -4.6 -2 -3.1 -0.6 -15.5 -8.3 -22.8 -14.1 -11.9 -9.5 -20 -20.1 -27.6 -35.8 -8 -16.5 -8.7 -15.4 11.1 -15.8 l16.6 -0.3 3.9 6.7 c9.8 16.5 24.5 27.3 43 31.9 3.1 0.8 10.6 1.3 17 1.3 19.1 -0.1 29.6 -3.9 46.1 -17 7.2 -5.6 8.4 -6.2 10.3 -5.2 2.8 1.5 22.7 20.1 22.4 21 -0.5 1.1 -17.3 15.8 -18.2 15.8 -0.5 0 -1.6 0.8 -2.5 1.8 -0.9 0.9 -3.4 2.6 -5.6 3.7 -2.2 1.1 -4.6 2.6 -5.3 3.3 -0.7 0.6 -2.2 1.2 -3.3 1.2 -1 0 -1.9 0.5 -1.9 1 0 0.6 -1 1 -2.2 1 -1.2 0 -3 0.7 -4 1.6 -1 1 -4 1.9 -6.8 2.2 -2.7 0.2 -5 0.8 -5 1.2 0 0.4 -1.1 0.5 -2.5 0.2 -1.4 -0.2 -2.5 0 -2.5 0.5 0 0.6 -1.1 0.8 -2.4 0.6 -1.3 -0.3 -2.7 0 -3 0.6 -0.4 0.6 -1 1 -1.4 0.9 -0.4 -0.1 -7.4 -0.5 -15.7 -0.8z"/>
  <path d="M363 341.4 c-1.4 -0.2 -5.2 -0.9 -8.4 -1.5 -6.8 -1.2 -21.8 -7.7 -28.6 -12.2 -12.1 -8.2 -26.6 -24.1 -31 -34.2 -4.8 -10.9 -4.3 -9.2 -7.1 -22 -3.8 -17.8 -1.6 -40.6 5.4 -55.8 8.6 -18.8 23.6 -34.1 43.3 -44.1 10.8 -5.5 20.6 -7.7 37 -8.3 l14.1 -0.5 12.4 -13 c6.8 -7.2 13.2 -14.4 14.2 -16 2.1 -3.5 2.7 -3.4 15.3 3.1 14.8 7.8 25.4 15.4 25.4 18.4 0 1.7 -32.1 33.6 -36.3 36.1 l-3.2 1.8 -9.6 -4.1 c-5.3 -2.2 -10.3 -4.1 -11.2 -4.1 -0.9 0 -2.3 -0.7 -3.1 -1.6 -0.9 -0.8 -1.6 -1.1 -1.6 -0.6 0 1.3 -4.2 0.3 -5.2 -1.2 -0.5 -0.8 -0.8 -0.7 -0.8 0.2 0 0.9 -2.6 1.2 -9.7 1.2 -15.9 0 -28.1 4 -40.4 13.1 -19.3 14.3 -29.1 33.3 -29.1 55.9 0 12.2 2.3 22.4 7.5 33 5.9 12 17.7 23.9 29.7 29.7 17.9 8.8 38.4 9.6 60.6 2.4 7.9 -2.5 12.8 -5 18.4 -9.5 3.8 -3 4.6 -3.3 5.4 -1.9 0.8 1.6 0.2 16.9 -1 21 -0.6 2.1 -4.1 4.3 -9.4 5.8 -1.4 0.4 -3.2 1.3 -4 1.9 -0.8 0.7 -5.6 2.5 -10.5 4 -7.4 2.2 -11.6 2.7 -22.5 3.1 -7.4 0.2 -14.6 0.2 -16 -0.1z"/>
  <path d="M466.2 339.5 c-1.5 -3.2 -1.6 -17.5 -0.2 -17.5 0.6 0 1 -12.6 1 -35.8 l0 -35.9 5.8 0.5 c3.1 0.2 6.3 1 7 1.6 2 2 1.7 71.7 -0.3 76 -1.5 3 -5.8 8.1 -10.2 11.9 -1.9 1.7 -2 1.6 -3.1 -0.8z"/>
  <path d="M75.8 202.8 c1.1 -4.2 23 -25 32.2 -30.6 11.6 -7.2 12.5 -6.5 1.2 0.8 -10.9 7 -17.2 12.8 -26.2 23.9 -3.6 4.4 -6.8 8 -7.2 8.1 -0.3 0 -0.3 -1 0 -2.2z"/>
  <path d="M28.6 198.6 c0.3 -0.9 1.1 -1.6 1.6 -1.6 1.3 0 0.5 2.3 -1 2.8 -0.7 0.2 -1 -0.2 -0.6 -1.2z"/>
  <path d="M33.2 190 c1.2 -2.2 2.4 -3.7 2.7 -3.4 0.7 0.6 -3 7.4 -4 7.4 -0.4 0 0.2 -1.8 1.3 -4z"/>
  <path d="M218.4 175.1 c-5.7 -4.2 -18.8 -10.5 -26.9 -12.9 -11.5 -3.4 -20.9 -4.5 -36 -4 -15.4 0.5 -14.3 -0.8 1.5 -1.8 11.1 -0.7 28.2 1.4 38 4.6 7.1 2.3 23 9.9 23 10.9 0 0.4 1.3 1.4 2.8 2.4 3.3 1.9 2.7 2.2 13 -7.7 2.8 -2.8 5.2 -4.4 5.2 -3.7 0 1.6 -13.9 15.1 -15.5 15.1 -0.6 0 -2.9 -1.3 -5.1 -2.9z"/>
  <path d="M46 170 c2.7 -3.9 3.4 -3.9 1.2 0 -0.9 1.6 -2.1 3 -2.5 3 -0.5 0 0.1 -1.3 1.3 -3z"/>
  <path d="M119.6 166.1 c1.2 -1.2 18.1 -7.1 20.2 -7 1.4 0 -19.2 7.9 -20.7 7.9 -0.3 0 -0.1 -0.4 0.5 -0.9z"/>
  <path d="M50 165.2 c0 -0.5 1.2 -1.9 2.7 -3.3 l2.6 -2.4 -2.3 3.3 c-2.5 3.3 -3 3.8 -3 2.4z"/>
  <path d="M245.3 139.9 c-1.8 -1.2 -3.3 -2.3 -3.3 -2.5 0 -1.3 4.1 0 7 2.1 2.7 2 3 2.5 1.4 2.5 -1 0 -3.4 -1 -5.1 -2.1z"/>
  <path d="M211 121.4 c-1.4 -0.7 -3.6 -1.4 -4.9 -1.4 -1.6 0 -2.2 -0.3 -1.5 -1 0.6 -0.6 3.3 -0.1 7.4 1.5 3.9 1.4 5.5 2.4 4 2.3 -1.4 0 -3.6 -0.6 -5 -1.4z"/>
  <path d="M191.5 116 c0.3 -0.5 1.6 -1 2.8 -1 1.8 0 1.9 0.2 0.7 1 -2 1.3 -4.3 1.3 -3.5 0z"/>
  <path d="M169.5 113 c-0.3 -0.5 0.3 -1 1.4 -1 1.2 0 2.1 0.5 2.1 1 0 0.6 -0.6 1 -1.4 1 -0.8 0 -1.8 -0.4 -2.1 -1z"/>
 </g>
</svg>